# xmcd
#
# Track frame offsets:
#       150
#       17016
#       31292
#       46064
#       65585
#       85895
#       103806
#       120362
#       138014
#       152385
#       174329
#
# Disc length: 2557 seconds
#
# Revision: 0
# Processed by: cddbd v1.5.1PL0 Copyright (c) Steve Scherf et al.
# Submitted via: CD-DA_X-Tractor v0.24
#
DISCID=7a09fb0b
DTITLE=Jarrod Birmingham - Stages
DYEAR=1900
DGENRE=
TTITLE0=Best I Can
TTITLE1=All The Way To Waycross
TTITLE2=Guilty
TTITLE3=Whiskey And Lies
TTITLE4=Let's Get It On
TTITLE5=If That Ain't Country
TTITLE6=Cheap Wine
TTITLE7=I Can't Imagine (Not Loving You)
TTITLE8=Bad Side Of Me
TTITLE9=Center Stage
TTITLE10=I Talk To Jesus
EXTD=
EXTT0=
EXTT1=
EXTT2=
EXTT3=
EXTT4=
EXTT5=
EXTT6=
EXTT7=
EXTT8=
EXTT9=
EXTT10=
PLAYORDER=
